<svg xmlns="http://www.w3.org/2000/svg" xmlns:xlink="http://www.w3.org/1999/xlink" width="1080" zoomAndPan="magnify" viewBox="0 0 810 809.999993" height="1080" preserveAspectRatio="xMidYMid meet" version="1.0"><defs><clipPath id="1b43ee8a27"><path d="M 81 80.25 L 729 80.25 L 729 119.277344 L 81 119.277344 Z M 81 80.25 " clip-rule="nonzero"/></clipPath><clipPath id="0bdaf7bd47"><path d="M 81 679.734375 L 729 679.734375 L 729 729 L 81 729 Z M 81 679.734375 " clip-rule="nonzero"/></clipPath><clipPath id="731acda72a"><path d="M 689.96875 80.996094 L 728.996094 80.996094 L 728.996094 728.996094 L 689.96875 728.996094 Z M 689.96875 80.996094 " clip-rule="nonzero"/></clipPath><clipPath id="59f13042a3"><path d="M 80.996094 80.996094 L 120.027344 80.996094 L 120.027344 728.996094 L 80.996094 728.996094 Z M 80.996094 80.996094 " clip-rule="nonzero"/></clipPath></defs><g clip-path="url(#1b43ee8a27)"><path fill="#000000" d="M 81 80.25 L 728.941406 80.25 L 728.941406 119.277344 L 81 119.277344 Z M 81 80.25 " fill-opacity="1" fill-rule="nonzero"/></g><g clip-path="url(#0bdaf7bd47)"><path fill="#000000" d="M 81 679.734375 L 728.9375 679.734375 L 728.9375 729 L 81 729 Z M 81 679.734375 " fill-opacity="1" fill-rule="nonzero"/></g><g clip-path="url(#731acda72a)"><path fill="#000000" d="M 728.996094 80.996094 L 728.996094 728.941406 L 689.96875 728.941406 L 689.96875 80.996094 Z M 728.996094 80.996094 " fill-opacity="1" fill-rule="nonzero"/></g><g clip-path="url(#59f13042a3)"><path fill="#000000" d="M 120.027344 80.996094 L 120.027344 728.941406 L 80.996094 728.941406 L 80.996094 80.996094 Z M 120.027344 80.996094 " fill-opacity="1" fill-rule="nonzero"/></g></svg>